<?xml version="1.0" encoding="UTF-8"?>
<svg xmlns="http://www.w3.org/2000/svg" xmlns:xlink="http://www.w3.org/1999/xlink" width="334pt" height="334pt" viewBox="0 0 334 334" version="1.1">
<g id="surface1">
<path style=" stroke:none;fill-rule:evenodd;fill:rgb(100%,100%,100%);fill-opacity:1;" d="M 167 0.773438 C 258.789063 0.773438 333.226563 75.210938 333.226563 167 C 333.226563 258.789063 258.789063 333.226563 167 333.226563 C 75.210938 333.226563 0.773438 258.789063 0.773438 167 C 0.773438 75.210938 75.210938 0.773438 167 0.773438 "/>
<path style=" stroke:none;fill-rule:evenodd;fill:rgb(2.69928%,10.598755%,11.399841%);fill-opacity:1;" d="M 147.910156 233.160156 C 146.785156 233.699219 145.632813 234.546875 145.1875 235.652344 C 144.402344 237.621094 145.949219 238.390625 147.191406 239.492188 C 147.425781 239.980469 147.722656 240.410156 148.019531 240.839844 C 153.980469 249.390625 151.832031 258.894531 147.359375 264.734375 C 144.828125 268.035156 141.644531 269.976563 137.6875 270.820313 C 131.632813 272.109375 136.894531 268.609375 137.972656 261.59375 C 137.972656 260.515625 137.972656 259.507813 137.972656 258.5 C 137.324219 256.773438 136.894531 254.902344 136.675781 253.027344 C 135.164063 250.652344 134.515625 248.925781 133.867188 247.917969 C 132.714844 247.199219 131.636719 246.476563 130.554688 245.828125 C 128.683594 246.910156 128.898438 247.558594 128.757813 250.003906 C 127.820313 252.453125 126.523438 254.828125 124.652344 256.699219 C 122.347656 258.210938 121.050781 258.210938 118.386719 257.996094 C 118.171875 257.636719 117.953125 257.277344 117.738281 256.914063 C 117.882813 256.484375 118.027344 256.125 118.171875 255.765625 C 120.402344 252.597656 121.265625 249.574219 118.097656 246.40625 C 117.828125 246.824219 116.828125 248.605469 115.066406 249.613281 C 111.78125 251.492188 109.871094 251.355469 105.933594 251.746094 C 103.011719 252.039063 101.0625 252.707031 103.480469 248.78125 C 107.296875 246.261719 106.792969 243.597656 105.929688 239.347656 C 104.894531 237.917969 103.269531 236.378906 101.082031 234.917969 C 89.414063 227.136719 75.746094 218.160156 68.644531 201.285156 C 66.707031 196.683594 65.386719 191.703125 65.316406 189.242188 C 64.246094 188.660156 62.601563 188.914063 61.890625 188.144531 C 59.03125 185.0625 63.734375 183.53125 64.652344 181.367188 C 64.914063 180.761719 64.945313 180.09375 64.875 179.449219 C 64.675781 177.554688 63.597656 176.242188 62.027344 175.316406 C 61.292969 174.886719 60.570313 174.488281 60.214844 173.882813 C 59.652344 172.925781 60.003906 171.597656 60.894531 170.644531 C 61.738281 169.738281 62.6875 169.140625 63.617188 168.976563 C 64.820313 168.761719 64.824219 166.652344 65.171875 165.46875 L 66.648438 161.472656 C 67.484375 159.75 68.472656 157.941406 69.636719 156.773438 C 71.136719 153.859375 73.300781 150.492188 76.089844 147.890625 C 86.636719 138.054688 95.726563 134.570313 78.496094 147.992188 C 76.621094 150.726563 74.460938 153.246094 72.804688 156.199219 C 69.207031 159.078125 68.054688 164.1875 66.972656 168.507813 C 67.695313 171.53125 69.925781 171.605469 72.519531 172.613281 C 74.535156 172.902344 76.550781 173.1875 78.640625 173.476563 C 86.34375 173.765625 94.046875 172.828125 101.679688 171.605469 C 102.6875 171.101563 103.699219 170.667969 104.777344 170.238281 C 105.28125 169.515625 105.785156 168.867188 106.363281 168.222656 C 106.558594 164.90625 106.078125 162.507813 104.960938 160.046875 C 103.761719 157.398438 98.105469 147.386719 95.945313 148.273438 C 95.332031 148.523438 94.929688 148.769531 94.769531 149.574219 C 95.054688 153.316406 95.273438 159.292969 92.96875 162.535156 C 92.535156 162.535156 92.175781 162.605469 91.816406 162.679688 C 91.023438 160.300781 92.464844 157.0625 92.609375 154.542969 C 92.535156 152.742188 92.464844 151.015625 92.464844 149.285156 C 91.582031 143.371094 90.117188 141.773438 88.113281 139.691406 C 88.390625 139.589844 88.761719 139.707031 89.140625 139.898438 C 90.699219 140.679688 91.800781 141.535156 92.679688 143.097656 C 93.109375 143.386719 93.710938 143.765625 94.320313 144.210938 C 96.660156 145.921875 98.988281 148.492188 101.023438 150.558594 C 104.851563 154.445313 107.894531 161.980469 109.960938 165.339844 C 110.824219 166.203125 111.691406 167.140625 112.554688 168.078125 C 114.355469 171.316406 111.761719 172.683594 111.761719 176.066406 C 112.050781 176.429688 112.339844 176.789063 112.699219 177.21875 C 114.21875 177.894531 117.097656 179.800781 116.535156 181.324219 C 116.058594 182.617188 114.691406 182.414063 113.625 182.503906 C 112.800781 182.570313 111.914063 182.671875 111.550781 182.628906 C 112.015625 182.238281 112.371094 181.628906 112.582031 181.015625 C 113.046875 179.660156 112.769531 179.449219 111.621094 178.824219 C 109.78125 177.820313 107.933594 177.375 105.785156 177.074219 C 105.28125 176.789063 104.851563 176.5 104.417969 176.285156 C 102.328125 176.285156 100.890625 177.292969 99.015625 177.867188 C 97.863281 177.867188 96.28125 177.578125 95.417969 178.445313 C 94.046875 177.4375 92.96875 178.085938 91.960938 179.09375 C 90.015625 178.804688 87.925781 177.796875 85.984375 178.515625 C 83.175781 178.226563 80.007813 179.378906 77.34375 180.027344 C 75.832031 180.890625 73.886719 181.179688 72.230469 181.324219 C 71.007813 181.828125 69.78125 182.332031 68.558594 182.90625 C 66.46875 183.195313 63.515625 184.921875 65.820313 187.226563 C 68.988281 186.433594 72.085938 184.5625 75.183594 183.339844 C 77.847656 182.691406 80.511719 181.972656 83.101563 181.035156 C 84.617188 181.035156 86.199219 181.035156 87.785156 181.035156 C 92.804688 181.289063 102.183594 179.648438 105.929688 180.605469 C 104.992188 182.332031 92.679688 182.261719 92.320313 183.410156 C 92.464844 187.875 93.113281 191.90625 93.90625 196.371094 C 95.847656 200.976563 95.703125 206.59375 99.738281 210.121094 C 103.839844 215.390625 107.546875 223.539063 114.066406 226.246094 C 115.652344 227.832031 117.882813 228.984375 120.113281 229.414063 C 122.921875 231 122.921875 231 123.355469 231.503906 C 123.789063 231.359375 124.21875 231.214844 124.722656 231.070313 C 127.460938 231.503906 129.117188 231.574219 129.476563 228.621094 C 129.332031 226.679688 129.332031 226.679688 129.042969 226.03125 C 119.753906 220.507813 114.417969 217.019531 109.601563 202.851563 C 109.097656 199.753906 108.59375 196.65625 108.089844 193.5625 C 107.945313 190.324219 107.875 187.15625 107.800781 183.988281 C 107.296875 182.476563 107.082031 182.261719 105.640625 181.683594 C 105.570313 181.324219 105.570313 181.324219 105.929688 180.605469 C 108.304688 180.890625 108.304688 180.890625 110.898438 181.539063 C 111.113281 181.898438 111.328125 182.261719 111.546875 182.621094 C 111.113281 183.769531 110.753906 184.921875 110.394531 186.148438 C 110.394531 188.667969 110.394531 191.1875 110.394531 193.777344 C 111.042969 197.304688 111.691406 200.90625 112.410156 204.503906 C 114.5 208.03125 117.378906 210.984375 120.90625 213 C 121.914063 213 122.921875 213.074219 124.003906 213.144531 C 125.515625 212.425781 126.308594 210.191406 128.253906 210.914063 C 129.621094 212.710938 127.746094 216.097656 129.261719 217.609375 C 130.410156 217.464844 131.132813 217.175781 132.140625 216.527344 C 132.789063 215.160156 133.4375 213.863281 134.085938 212.570313 C 137.539063 213.792969 136.75 217.824219 137.46875 220.777344 C 137.828125 221.0625 138.1875 221.351563 138.621094 221.640625 C 138.550781 222 138.476563 222.359375 138.40625 222.789063 C 136.964844 223.726563 135.308594 224.375 134.949219 226.175781 C 135.378906 227.328125 135.8125 228.984375 136.894531 229.703125 C 134.515625 231.429688 134.15625 235.535156 134.660156 238.199219 C 135.308594 238.484375 136.390625 238.917969 136.675781 239.566406 C 137.398438 239.78125 138.117188 239.996094 138.835938 240.214844 C 141.214844 242.375 142.222656 243.453125 143.300781 246.40625 C 144.382813 247.84375 145.03125 250.4375 145.535156 252.164063 C 145.175781 252.238281 144.886719 252.308594 144.597656 252.378906 C 144.382813 251.515625 144.164063 250.507813 143.589844 249.933594 C 143.371094 248.925781 143.15625 247.988281 142.941406 247.054688 C 141.5 246.332031 140.636719 244.605469 139.84375 243.238281 C 137.972656 241.796875 137.972656 241.796875 137.179688 240.863281 C 135.886719 240.359375 134.445313 240.285156 133.078125 240.214844 C 131.277344 241.078125 131.492188 240.863281 131.492188 243.023438 C 132.355469 243.597656 133.21875 244.171875 134.085938 244.75 C 135.667969 246.332031 137.253906 247.917969 138.910156 249.574219 C 139.917969 252.523438 141.355469 255.332031 141.789063 258.425781 C 141.644531 259.941406 141.5 261.523438 141.355469 263.105469 C 140.996094 264.402344 140.203125 265.988281 141.5 266.851563 C 146.324219 266.058594 147.550781 259.867188 148.703125 255.980469 C 149.691406 247.785156 148.660156 244.242188 143.589844 238.414063 C 142.4375 237.40625 141.644531 237.046875 141.429688 235.535156 C 148.882813 232.9375 158.222656 215.929688 146.183594 207.3125 C 141.933594 205.945313 144.164063 212.570313 144.382813 214.511719 C 144.164063 215.304688 144.019531 216.097656 143.878906 216.886719 C 143.300781 217.753906 142.796875 218.617188 142.292969 219.550781 C 141.5 219.910156 140.566406 220.558594 139.988281 221.207031 C 139.917969 220.921875 139.84375 220.632813 139.84375 220.34375 C 141.355469 219.625 142.078125 216.601563 142.367188 214.945313 C 142.726563 210.121094 140.78125 206.160156 136.171875 204.792969 C 135.957031 204.503906 135.742188 204.21875 135.523438 203.929688 C 137.835938 202.230469 140.804688 202.78125 143.601563 203.925781 C 147.4375 205.496094 150.132813 207.121094 152.546875 210.503906 C 155.453125 214.574219 155.636719 217.890625 154.867188 221.394531 C 153.554688 227.386719 150.734375 229.445313 147.910156 233.160156 Z M 79.949219 159.933594 C 80.640625 159.933594 81.203125 160.496094 81.203125 161.1875 C 81.203125 161.882813 80.640625 162.445313 79.949219 162.445313 C 79.253906 162.445313 78.691406 161.882813 78.691406 161.1875 C 78.691406 160.496094 79.253906 159.933594 79.949219 159.933594 Z M 90.472656 199.132813 C 90.554688 199.621094 90.363281 200.0625 90.046875 200.117188 C 89.730469 200.171875 89.410156 199.820313 89.332031 199.332031 C 89.25 198.84375 89.441406 198.402344 89.753906 198.351563 C 90.070313 198.296875 90.394531 198.648438 90.472656 199.132813 Z M 90.988281 193.617188 C 91.152344 194.59375 90.769531 195.472656 90.136719 195.582031 C 89.507813 195.691406 88.863281 194.988281 88.703125 194.011719 C 88.539063 193.039063 88.921875 192.15625 89.550781 192.050781 C 90.183594 191.941406 90.828125 192.644531 90.988281 193.617188 Z M 107.796875 234.832031 C 108.386719 235.136719 108.699219 235.699219 108.496094 236.085938 C 108.300781 236.472656 107.660156 236.542969 107.070313 236.234375 C 106.484375 235.933594 106.171875 235.371094 106.371094 234.984375 C 106.570313 234.597656 107.210938 234.527344 107.796875 234.832031 Z M 111.714844 227.265625 C 112.300781 227.570313 112.613281 228.132813 112.414063 228.519531 C 112.214844 228.90625 111.574219 228.976563 110.988281 228.671875 C 110.398438 228.367188 110.085938 227.804688 110.285156 227.417969 C 110.488281 227.03125 111.125 226.960938 111.714844 227.265625 Z M 101.46875 229.148438 C 102.34375 229.601563 102.816406 230.441406 102.515625 231.019531 C 102.214844 231.601563 101.261719 231.699219 100.382813 231.246094 C 99.503906 230.789063 99.03125 229.953125 99.332031 229.375 C 99.632813 228.796875 100.589844 228.691406 101.46875 229.148438 Z M 106.410156 223.847656 C 106.816406 223.847656 107.148438 224.175781 107.148438 224.585938 C 107.148438 224.992188 106.816406 225.324219 106.410156 225.324219 C 106 225.324219 105.671875 224.992188 105.671875 224.585938 C 105.671875 224.175781 106 223.847656 106.410156 223.847656 Z M 131.046875 220.945313 C 131.671875 220.363281 132.394531 219.941406 133.335938 219.863281 C 133.65625 220.691406 133.773438 221.515625 133.589844 222.339844 C 132.742188 222.320313 131.894531 221.980469 131.046875 220.945313 Z M 123.425781 255.40625 C 121.628906 253.027344 123.714844 249.859375 124.867188 247.484375 C 124.867188 245.542969 123.859375 244.246094 124.652344 242.375 C 125.011719 242.15625 125.445313 241.941406 125.875 241.796875 C 126.8125 242.589844 127.171875 244.75 127.460938 245.902344 C 127.460938 249.070313 126.667969 254.035156 123.425781 255.40625 Z M 110.394531 249.5 C 108.882813 248.996094 108.882813 248.78125 108.882813 247.269531 C 109.746094 244.675781 109.816406 242.015625 110.464844 239.421875 C 113.777344 239.925781 110.683594 244.390625 113.203125 244.390625 C 113.996094 243.597656 113.632813 241.941406 114.210938 240.789063 C 116.15625 241.726563 115.796875 244.820313 115.003906 246.476563 C 113.921875 247.414063 113.921875 247.414063 110.394531 249.5 Z M 128.179688 240.789063 C 127.101563 237.550781 130.628906 233.160156 131.851563 230.351563 C 132.285156 229.992188 132.644531 229.34375 132.933594 229.269531 C 132.933594 229.917969 133.003906 230.640625 133.078125 231.359375 C 132.214844 235.101563 131.5625 238.558594 128.179688 240.789063 Z M 119.609375 238.628906 C 117.089844 236.972656 121.554688 233.660156 121.265625 237.40625 C 120.835938 238.125 120.332031 238.414063 119.609375 238.628906 Z M 111.835938 234.742188 C 110.320313 233.230469 110.394531 233.230469 111.617188 231.503906 C 113.347656 231.933594 112.984375 233.804688 111.835938 234.742188 Z M 116.441406 234.453125 C 115.148438 233.160156 114.355469 231.574219 116.226563 230.640625 C 116.945313 231.359375 117.449219 232.367188 117.449219 233.519531 C 117.089844 233.804688 116.730469 234.09375 116.441406 234.453125 Z M 123.425781 233.949219 C 123.140625 233.375 123.066406 233.375 123.210938 232.65625 C 123.355469 232.582031 123.5 232.582031 123.714844 232.582031 C 123.714844 232.871094 123.789063 233.160156 123.859375 233.519531 C 123.714844 233.660156 123.570313 233.804688 123.425781 233.949219 Z M 107.082031 231.933594 C 106.507813 231.789063 105.929688 231.644531 105.425781 231.503906 C 104.777344 230.207031 104.632813 229.128906 105.855469 228.261719 C 107.585938 228.765625 108.019531 229.488281 107.65625 231.285156 C 107.441406 231.503906 107.226563 231.71875 107.082031 231.933594 Z M 141.070313 229.054688 C 140.925781 228.910156 140.851563 228.839844 140.78125 228.765625 C 140.996094 227.976563 140.996094 227.976563 141.789063 226.824219 C 144.453125 225.09375 145.246094 221.425781 147.910156 219.839844 C 148.054688 219.910156 148.199219 220.054688 148.414063 220.199219 C 148.414063 223.078125 144.742188 227.039063 142.4375 228.765625 C 141.933594 228.839844 141.5 228.910156 141.070313 229.054688 Z M 101.25 227.757813 C 99.882813 226.75 98.585938 225.238281 99.808594 223.511719 C 101.464844 223.367188 102.90625 222.648438 103.265625 225.167969 C 102.832031 226.96875 102.832031 227.542969 101.25 227.757813 Z M 94.046875 226.03125 C 93.832031 225.816406 93.617188 225.597656 93.472656 225.453125 C 93.617188 224.085938 93.832031 222.71875 95.34375 224.230469 C 95.34375 224.589844 95.417969 224.953125 95.488281 225.382813 C 95.128906 225.742188 95.128906 225.742188 94.046875 226.03125 Z M 95.34375 222.285156 C 95.34375 220.847656 94.984375 219.910156 96.855469 219.910156 C 97.074219 220.054688 97.289063 220.199219 97.503906 220.34375 C 97.433594 220.777344 97.433594 221.207031 97.433594 221.710938 C 97.074219 222 97.074219 222 95.34375 222.285156 Z M 89.367188 222.144531 C 87.785156 221.207031 86.054688 218.832031 88.070313 217.390625 C 90.878906 217.390625 91.167969 218.761719 90.953125 221.207031 C 90.664063 221.785156 90.015625 221.929688 89.367188 222.144531 Z M 102.257813 220.703125 C 101.898438 220.632813 101.535156 220.558594 101.25 220.558594 C 101.25 220.414063 101.25 220.273438 101.320313 220.199219 C 101.679688 220.128906 102.039063 220.054688 102.402344 219.984375 C 102.328125 220.199219 102.257813 220.414063 102.257813 220.703125 Z M 94.046875 218.039063 C 93.617188 217.894531 93.183594 217.753906 92.824219 217.609375 C 92.320313 216.671875 92.679688 216.023438 92.96875 215.230469 C 93.402344 215.089844 93.90625 214.945313 94.410156 214.871094 C 95.128906 215.59375 95.054688 217.535156 94.046875 218.039063 Z M 123.425781 217.894531 C 122.78125 216.742188 123.355469 215.089844 124.867188 215.59375 C 124.867188 216.023438 124.867188 216.527344 124.867188 217.03125 C 124.363281 217.320313 123.859375 217.609375 123.425781 217.894531 Z M 98.800781 216.886719 C 98.296875 216.097656 97.648438 215.015625 98.585938 214.296875 C 100.023438 214.511719 100.527344 215.160156 100.097656 216.601563 C 99.664063 216.671875 99.234375 216.742188 98.800781 216.886719 Z M 84.761719 216.457031 C 84.039063 215.878906 83.320313 215.304688 82.597656 214.730469 C 82.597656 213.648438 82.527344 212.210938 83.535156 211.5625 C 86.128906 211.5625 86.777344 213 85.625 215.734375 C 85.335938 215.953125 85.046875 216.167969 84.761719 216.457031 Z M 89.367188 214.296875 C 88.214844 212.570313 88.71875 210.984375 90.449219 210.121094 C 90.59375 210.191406 90.734375 210.265625 90.953125 210.335938 C 91.238281 211.488281 91.457031 213.074219 90.808594 214.007813 C 90.304688 214.078125 89.800781 214.152344 89.367188 214.296875 Z M 95.34375 212.710938 C 94.984375 212.136719 94.625 211.5625 94.335938 211.058594 C 94.550781 210.410156 94.839844 209.761719 95.128906 209.113281 C 95.558594 209.257813 96.066406 209.402344 96.570313 209.617188 C 97.433594 211.417969 96.714844 212.0625 95.34375 212.710938 Z M 80.007813 211.417969 C 78.496094 210.191406 77.269531 208.25 78.566406 206.304688 L 78.566406 206.257813 C 78.527344 206.273438 78.488281 206.28125 78.449219 206.289063 C 77.75 206.429688 77.039063 205.53125 76.859375 204.28125 C 76.789063 203.804688 76.8125 203.34375 76.902344 202.949219 C 76.878906 202.894531 76.859375 202.835938 76.839844 202.777344 C 77.488281 201.410156 77.488281 200.976563 79.144531 201.265625 C 79.863281 202.632813 80.582031 203.929688 79.429688 205.082031 C 79.429688 205.511719 79.429688 205.945313 79.429688 206.449219 C 81.808594 206.882813 82.886719 207.527344 82.023438 210.191406 C 81.375 210.839844 80.796875 211.128906 80.007813 211.417969 Z M 86.488281 209.402344 C 84.832031 208.898438 85.121094 206.378906 86.128906 205.371094 C 86.414063 205.226563 86.703125 205.152344 87.0625 205.082031 C 88.574219 206.59375 89.007813 208.898438 86.488281 209.402344 Z M 91.886719 208.96875 C 91.3125 207.601563 90.878906 206.378906 91.816406 205.082031 C 92.394531 205.152344 92.96875 205.226563 93.542969 205.296875 C 94.191406 206.304688 94.046875 207.527344 93.328125 208.535156 C 92.824219 208.679688 92.320313 208.824219 91.886719 208.96875 Z M 85.910156 204.503906 C 83.75 204.074219 81.449219 200.90625 84.398438 199.824219 C 84.902344 199.753906 85.480469 199.753906 86.054688 199.753906 C 86.703125 201.050781 87.0625 201.554688 87.0625 203.066406 C 86.199219 203.855469 86.199219 203.855469 85.910156 204.503906 Z M 90.664063 203.136719 C 90.375 202.488281 90.519531 202.273438 90.59375 201.480469 C 90.953125 201.480469 91.3125 201.480469 91.671875 201.480469 C 91.671875 201.914063 91.671875 202.347656 91.742188 202.851563 C 91.382813 202.921875 91.023438 202.992188 90.664063 203.136719 Z M 73.742188 199.96875 C 72.445313 199.464844 71.4375 197.089844 72.085938 195.792969 C 73.957031 196.082031 75.328125 197.234375 75.328125 199.25 C 74.75 199.464844 74.246094 199.683594 73.742188 199.96875 Z M 80.152344 199.105469 C 79.933594 198.816406 79.71875 198.601563 79.574219 198.386719 C 79.789063 197.304688 79.789063 197.304688 80.078125 196.945313 C 80.4375 196.945313 80.871094 197.019531 81.304688 197.089844 C 81.304688 197.449219 81.375 197.882813 81.449219 198.3125 C 81.015625 198.53125 80.582031 198.816406 80.152344 199.105469 Z M 85.769531 198.675781 C 85.480469 197.664063 84.832031 197.019531 85.839844 196.152344 C 86.273438 196.296875 86.703125 196.441406 87.136719 196.585938 C 87.136719 197.953125 86.917969 198.027344 85.769531 198.675781 Z M 76.40625 195.648438 C 73.597656 194.28125 74.894531 191.113281 77.992188 191.546875 C 78.421875 192.410156 78.277344 194.570313 77.847656 195.507813 C 77.34375 195.507813 76.839844 195.578125 76.40625 195.648438 Z M 83.605469 194.210938 C 83.246094 193.996094 82.960938 193.777344 82.671875 193.5625 C 81.375 189.675781 86.199219 186.796875 86.199219 192.554688 C 85.265625 193.707031 84.976563 193.851563 83.605469 194.210938 Z M 71.726563 191.476563 C 70.070313 190.324219 70.359375 190.105469 70.503906 188.164063 C 71.582031 187.082031 72.589844 186.507813 74.101563 187.441406 C 74.390625 188.738281 74.03125 190.25 73.238281 191.257813 C 72.734375 191.332031 72.230469 191.402344 71.726563 191.476563 Z M 80.152344 189.601563 C 77.125 187.804688 77.558594 184.5625 80.871094 183.769531 C 83.03125 184.492188 82.09375 187.011719 81.589844 188.667969 C 81.085938 188.953125 80.582031 189.242188 80.152344 189.601563 Z M 87.0625 188.089844 C 86.34375 186.578125 84.902344 185.140625 86.054688 183.410156 C 89.078125 182.402344 89.007813 185.285156 88.792969 187.515625 C 88.503906 187.804688 88.503906 187.804688 87.0625 188.089844 Z M 69.421875 176.285156 C 68.199219 175.347656 66.902344 174.914063 66.253906 173.546875 C 67.476563 172.324219 70.71875 173.910156 71.582031 175.203125 C 72.519531 175.347656 73.453125 175.492188 74.390625 175.636719 C 74.390625 175.707031 74.390625 175.851563 74.460938 175.996094 C 72.734375 176.066406 71.078125 176.140625 69.421875 176.285156 Z M 105.425781 173.476563 C 105.785156 171.101563 107.152344 170.957031 109.171875 170.164063 C 109.816406 170.164063 109.890625 170.667969 110.179688 171.101563 C 109.601563 172.253906 108.808594 172.972656 107.515625 173.332031 C 106.792969 173.332031 106.074219 173.40625 105.425781 173.476563 Z M 78.566406 166.710938 C 75.109375 165.773438 73.382813 162.460938 75.253906 159.148438 C 78.136719 157.710938 82.382813 156.917969 84.039063 160.300781 C 84.039063 162.101563 83.535156 164.335938 82.238281 165.628906 C 81.015625 165.988281 79.789063 166.351563 78.566406 166.710938 "/>
<path style=" stroke:none;fill-rule:evenodd;fill:rgb(2.69928%,10.598755%,11.399841%);fill-opacity:1;" d="M 186.089844 233.160156 C 187.214844 233.699219 188.367188 234.546875 188.8125 235.652344 C 189.597656 237.621094 188.050781 238.390625 186.808594 239.492188 C 186.578125 239.980469 186.277344 240.410156 185.980469 240.839844 C 180.019531 249.390625 182.167969 258.894531 186.644531 264.734375 C 189.171875 268.035156 192.355469 269.976563 196.3125 270.820313 C 202.367188 272.109375 197.105469 268.609375 196.027344 261.59375 C 196.027344 260.515625 196.027344 259.507813 196.027344 258.5 C 196.675781 256.773438 197.105469 254.902344 197.324219 253.027344 C 198.835938 250.652344 199.484375 248.925781 200.132813 247.917969 C 201.285156 247.199219 202.363281 246.476563 203.445313 245.828125 C 205.316406 246.910156 205.101563 247.558594 205.242188 250.003906 C 206.179688 252.453125 207.476563 254.828125 209.347656 256.699219 C 211.652344 258.210938 212.949219 258.210938 215.613281 257.996094 C 215.828125 257.636719 216.046875 257.277344 216.261719 256.914063 C 216.117188 256.484375 215.972656 256.125 215.828125 255.765625 C 213.597656 252.597656 212.734375 249.574219 215.902344 246.40625 C 216.171875 246.824219 217.171875 248.605469 218.933594 249.613281 C 222.21875 251.492188 224.128906 251.355469 228.066406 251.746094 C 230.988281 252.039063 232.9375 252.707031 230.519531 248.78125 C 226.703125 246.261719 227.207031 243.597656 228.070313 239.347656 C 229.105469 237.917969 230.730469 236.378906 232.917969 234.917969 C 244.585938 227.136719 258.253906 218.160156 265.355469 201.285156 C 267.292969 196.683594 268.613281 191.703125 268.683594 189.242188 C 269.753906 188.660156 271.394531 188.914063 272.109375 188.144531 C 274.96875 185.0625 270.265625 183.53125 269.347656 181.367188 C 269.089844 180.761719 269.054688 180.09375 269.125 179.449219 C 269.320313 177.554688 270.402344 176.242188 271.972656 175.316406 C 272.703125 174.886719 273.429688 174.488281 273.785156 173.882813 C 274.347656 172.925781 273.996094 171.597656 273.105469 170.644531 C 272.261719 169.738281 271.3125 169.140625 270.382813 168.976563 C 269.179688 168.761719 269.175781 166.652344 268.828125 165.46875 L 267.351563 161.472656 C 266.515625 159.75 265.527344 157.941406 264.363281 156.773438 C 262.863281 153.859375 260.699219 150.492188 257.910156 147.890625 C 247.363281 138.054688 238.273438 134.570313 255.503906 147.992188 C 257.378906 150.726563 259.539063 153.246094 261.195313 156.199219 C 264.792969 159.078125 265.945313 164.1875 267.027344 168.507813 C 266.304688 171.53125 264.074219 171.605469 261.480469 172.613281 C 259.464844 172.902344 257.449219 173.1875 255.359375 173.476563 C 247.65625 173.765625 239.953125 172.828125 232.320313 171.605469 C 231.3125 171.101563 230.300781 170.667969 229.222656 170.238281 C 228.71875 169.515625 228.214844 168.867188 227.636719 168.222656 C 227.441406 164.90625 227.921875 162.507813 229.039063 160.046875 C 230.238281 157.398438 235.894531 147.386719 238.054688 148.273438 C 238.667969 148.523438 239.070313 148.769531 239.230469 149.574219 C 238.941406 153.316406 238.726563 159.292969 241.03125 162.535156 C 241.464844 162.535156 241.824219 162.605469 242.183594 162.679688 C 242.976563 160.300781 241.535156 157.0625 241.390625 154.542969 C 241.464844 152.742188 241.535156 151.015625 241.535156 149.285156 C 242.417969 143.371094 243.882813 141.773438 245.886719 139.691406 C 245.609375 139.589844 245.238281 139.707031 244.859375 139.898438 C 243.300781 140.679688 242.199219 141.535156 241.320313 143.097656 C 240.890625 143.386719 240.289063 143.765625 239.679688 144.210938 C 237.339844 145.921875 235.011719 148.492188 232.976563 150.558594 C 229.148438 154.445313 226.105469 161.980469 224.039063 165.339844 C 223.175781 166.203125 222.308594 167.140625 221.445313 168.078125 C 219.644531 171.316406 222.238281 172.683594 222.238281 176.066406 C 221.949219 176.429688 221.660156 176.789063 221.300781 177.21875 C 219.78125 177.894531 216.902344 179.800781 217.464844 181.324219 C 217.941406 182.617188 219.308594 182.414063 220.375 182.503906 C 221.199219 182.570313 222.085938 182.671875 222.449219 182.628906 C 221.984375 182.238281 221.628906 181.628906 221.417969 181.015625 C 220.953125 179.660156 221.230469 179.449219 222.378906 178.824219 C 224.21875 177.820313 226.066406 177.375 228.214844 177.074219 C 228.71875 176.789063 229.148438 176.5 229.582031 176.285156 C 231.671875 176.285156 233.109375 177.292969 234.984375 177.867188 C 236.136719 177.867188 237.71875 177.578125 238.582031 178.445313 C 239.953125 177.4375 241.03125 178.085938 242.039063 179.09375 C 243.984375 178.804688 246.070313 177.796875 248.015625 178.515625 C 250.824219 178.226563 253.992188 179.378906 256.65625 180.027344 C 258.167969 180.890625 260.113281 181.179688 261.769531 181.324219 C 262.992188 181.828125 264.21875 182.332031 265.441406 182.90625 C 267.53125 183.195313 270.484375 184.921875 268.179688 187.226563 C 265.011719 186.433594 261.914063 184.5625 258.816406 183.339844 C 256.152344 182.691406 253.488281 181.972656 250.898438 181.035156 C 249.382813 181.035156 247.800781 181.035156 246.214844 181.035156 C 241.195313 181.289063 231.816406 179.648438 228.070313 180.605469 C 229.007813 182.332031 241.320313 182.261719 241.679688 183.410156 C 241.535156 187.875 240.886719 191.90625 240.097656 196.371094 C 238.152344 200.976563 238.296875 206.59375 234.261719 210.121094 C 230.160156 215.390625 226.453125 223.539063 219.933594 226.246094 C 218.347656 227.832031 216.117188 228.984375 213.886719 229.414063 C 211.078125 231 211.078125 231 210.644531 231.503906 C 210.214844 231.359375 209.78125 231.214844 209.277344 231.070313 C 206.539063 231.503906 204.882813 231.574219 204.523438 228.621094 C 204.667969 226.679688 204.667969 226.679688 204.957031 226.03125 C 214.246094 220.507813 219.582031 217.019531 224.398438 202.851563 C 224.902344 199.753906 225.40625 196.65625 225.910156 193.5625 C 226.054688 190.324219 226.125 187.15625 226.199219 183.988281 C 226.703125 182.476563 226.917969 182.261719 228.359375 181.683594 C 228.429688 181.324219 228.429688 181.324219 228.070313 180.605469 C 225.695313 180.890625 225.695313 180.890625 223.101563 181.539063 C 222.886719 181.898438 222.671875 182.261719 222.453125 182.621094 C 222.886719 183.769531 223.246094 184.921875 223.605469 186.148438 C 223.605469 188.667969 223.605469 191.1875 223.605469 193.777344 C 222.957031 197.304688 222.308594 200.90625 221.589844 204.503906 C 219.5 208.03125 216.621094 210.984375 213.09375 213 C 212.085938 213 211.078125 213.074219 209.996094 213.144531 C 208.484375 212.425781 207.691406 210.191406 205.746094 210.914063 C 204.378906 212.710938 206.253906 216.097656 204.738281 217.609375 C 203.589844 217.464844 202.867188 217.175781 201.859375 216.527344 C 201.210938 215.160156 200.5625 213.863281 199.914063 212.570313 C 196.460938 213.792969 197.25 217.824219 196.53125 220.777344 C 196.171875 221.0625 195.8125 221.351563 195.378906 221.640625 C 195.449219 222 195.523438 222.359375 195.59375 222.789063 C 197.035156 223.726563 198.691406 224.375 199.050781 226.175781 C 198.621094 227.328125 198.1875 228.984375 197.105469 229.703125 C 199.484375 231.429688 199.84375 235.535156 199.339844 238.199219 C 198.691406 238.484375 197.609375 238.917969 197.324219 239.566406 C 196.601563 239.78125 195.882813 239.996094 195.164063 240.214844 C 192.785156 242.375 191.777344 243.453125 190.699219 246.40625 C 189.617188 247.84375 188.96875 250.4375 188.464844 252.164063 C 188.824219 252.238281 189.113281 252.308594 189.402344 252.378906 C 189.617188 251.515625 189.835938 250.507813 190.410156 249.933594 C 190.628906 248.925781 190.84375 247.988281 191.058594 247.054688 C 192.5 246.332031 193.363281 244.605469 194.15625 243.238281 C 196.027344 241.796875 196.027344 241.796875 196.820313 240.863281 C 198.113281 240.359375 199.554688 240.285156 200.921875 240.214844 C 202.722656 241.078125 202.507813 240.863281 202.507813 243.023438 C 201.644531 243.597656 200.78125 244.171875 199.914063 244.75 C 198.332031 246.332031 196.746094 247.917969 195.089844 249.574219 C 194.082031 252.523438 192.644531 255.332031 192.210938 258.425781 C 192.355469 259.941406 192.5 261.523438 192.644531 263.105469 C 193.003906 264.402344 193.796875 265.988281 192.5 266.851563 C 187.675781 266.058594 186.449219 259.867188 185.296875 255.980469 C 184.308594 247.785156 185.339844 244.242188 190.410156 238.414063 C 191.5625 237.40625 192.355469 237.046875 192.570313 235.535156 C 185.117188 232.9375 175.777344 215.929688 187.816406 207.3125 C 192.066406 205.945313 189.835938 212.570313 189.617188 214.511719 C 189.835938 215.304688 189.980469 216.097656 190.121094 216.886719 C 190.699219 217.753906 191.203125 218.617188 191.707031 219.550781 C 192.5 219.910156 193.433594 220.558594 194.011719 221.207031 C 194.082031 220.921875 194.15625 220.632813 194.15625 220.34375 C 192.644531 219.625 191.921875 216.601563 191.632813 214.945313 C 191.273438 210.121094 193.21875 206.160156 197.828125 204.792969 C 198.042969 204.503906 198.257813 204.21875 198.476563 203.929688 C 196.164063 202.230469 193.195313 202.78125 190.398438 203.925781 C 186.5625 205.496094 183.867188 207.121094 181.453125 210.503906 C 178.546875 214.574219 178.363281 217.890625 179.132813 221.394531 C 180.445313 227.386719 183.265625 229.445313 186.089844 233.160156 Z M 254.050781 159.933594 C 253.359375 159.933594 252.796875 160.496094 252.796875 161.1875 C 252.796875 161.882813 253.359375 162.445313 254.050781 162.445313 C 254.746094 162.445313 255.308594 161.882813 255.308594 161.1875 C 255.308594 160.496094 254.746094 159.933594 254.050781 159.933594 Z M 243.527344 199.132813 C 243.445313 199.621094 243.636719 200.0625 243.953125 200.117188 C 244.269531 200.171875 244.589844 199.820313 244.671875 199.332031 C 244.75 198.84375 244.558594 198.402344 244.246094 198.351563 C 243.929688 198.296875 243.605469 198.648438 243.527344 199.132813 Z M 243.011719 193.617188 C 242.847656 194.59375 243.230469 195.472656 243.863281 195.582031 C 244.492188 195.691406 245.136719 194.988281 245.296875 194.011719 C 245.460938 193.039063 245.078125 192.15625 244.449219 192.050781 C 243.816406 191.941406 243.171875 192.644531 243.011719 193.617188 Z M 226.203125 234.832031 C 225.613281 235.136719 225.300781 235.699219 225.503906 236.085938 C 225.699219 236.472656 226.339844 236.542969 226.929688 236.234375 C 227.515625 235.933594 227.828125 235.371094 227.628906 234.984375 C 227.429688 234.597656 226.789063 234.527344 226.203125 234.832031 Z M 222.285156 227.265625 C 221.699219 227.570313 221.386719 228.132813 221.585938 228.519531 C 221.785156 228.90625 222.425781 228.976563 223.011719 228.671875 C 223.601563 228.367188 223.914063 227.804688 223.714844 227.417969 C 223.515625 227.03125 222.875 226.960938 222.285156 227.265625 Z M 232.53125 229.148438 C 231.65625 229.601563 231.183594 230.441406 231.484375 231.019531 C 231.785156 231.601563 232.738281 231.699219 233.617188 231.246094 C 234.496094 230.789063 234.96875 229.953125 234.667969 229.375 C 234.367188 228.796875 233.410156 228.691406 232.53125 229.148438 Z M 227.589844 223.847656 C 227.183594 223.847656 226.851563 224.175781 226.851563 224.585938 C 226.851563 224.992188 227.183594 225.324219 227.589844 225.324219 C 228 225.324219 228.328125 224.992188 228.328125 224.585938 C 228.328125 224.175781 228 223.847656 227.589844 223.847656 Z M 202.953125 220.945313 C 202.328125 220.363281 201.605469 219.941406 200.664063 219.863281 C 200.34375 220.691406 200.226563 221.515625 200.410156 222.339844 C 201.257813 222.320313 202.105469 221.980469 202.953125 220.945313 Z M 210.574219 255.40625 C 212.371094 253.027344 210.285156 249.859375 209.132813 247.484375 C 209.132813 245.542969 210.140625 244.246094 209.347656 242.375 C 208.988281 242.15625 208.558594 241.941406 208.125 241.796875 C 207.1875 242.589844 206.828125 244.75 206.539063 245.902344 C 206.539063 249.070313 207.332031 254.035156 210.574219 255.40625 Z M 223.605469 249.5 C 225.117188 248.996094 225.117188 248.78125 225.117188 247.269531 C 224.253906 244.675781 224.183594 242.015625 223.535156 239.421875 C 220.222656 239.925781 223.316406 244.390625 220.796875 244.390625 C 220.003906 243.597656 220.367188 241.941406 219.789063 240.789063 C 217.84375 241.726563 218.203125 244.820313 218.996094 246.476563 C 220.078125 247.414063 220.078125 247.414063 223.605469 249.5 Z M 205.820313 240.789063 C 206.898438 237.550781 203.371094 233.160156 202.148438 230.351563 C 201.714844 229.992188 201.355469 229.34375 201.066406 229.269531 C 201.066406 229.917969 200.996094 230.640625 200.921875 231.359375 C 201.789063 235.101563 202.4375 238.558594 205.820313 240.789063 Z M 214.390625 238.628906 C 216.910156 236.972656 212.445313 233.660156 212.734375 237.40625 C 213.164063 238.125 213.667969 238.414063 214.390625 238.628906 Z M 222.164063 234.742188 C 223.679688 233.230469 223.605469 233.230469 222.382813 231.503906 C 220.652344 231.933594 221.015625 233.804688 222.164063 234.742188 Z M 217.558594 234.453125 C 218.855469 233.160156 219.644531 231.574219 217.773438 230.640625 C 217.054688 231.359375 216.550781 232.367188 216.550781 233.519531 C 216.910156 233.804688 217.269531 234.09375 217.558594 234.453125 Z M 210.574219 233.949219 C 210.859375 233.375 210.933594 233.375 210.789063 232.65625 C 210.644531 232.582031 210.5 232.582031 210.285156 232.582031 C 210.285156 232.871094 210.214844 233.160156 210.140625 233.519531 C 210.285156 233.660156 210.429688 233.804688 210.574219 233.949219 Z M 226.917969 231.933594 C 227.492188 231.789063 228.070313 231.644531 228.574219 231.503906 C 229.222656 230.207031 229.367188 229.128906 228.144531 228.261719 C 226.414063 228.765625 225.980469 229.488281 226.34375 231.285156 C 226.558594 231.503906 226.773438 231.71875 226.917969 231.933594 Z M 192.929688 229.054688 C 193.074219 228.910156 193.148438 228.839844 193.21875 228.765625 C 193.003906 227.976563 193.003906 227.976563 192.210938 226.824219 C 189.546875 225.09375 188.753906 221.425781 186.089844 219.839844 C 185.945313 219.910156 185.800781 220.054688 185.585938 220.199219 C 185.585938 223.078125 189.257813 227.039063 191.5625 228.765625 C 192.066406 228.839844 192.5 228.910156 192.929688 229.054688 Z M 232.75 227.757813 C 234.117188 226.75 235.414063 225.238281 234.191406 223.511719 C 232.535156 223.367188 231.09375 222.648438 230.734375 225.167969 C 231.167969 226.96875 231.167969 227.542969 232.75 227.757813 Z M 239.953125 226.03125 C 240.167969 225.816406 240.382813 225.597656 240.527344 225.453125 C 240.382813 224.085938 240.167969 222.71875 238.65625 224.230469 C 238.65625 224.589844 238.582031 224.953125 238.511719 225.382813 C 238.871094 225.742188 238.871094 225.742188 239.953125 226.03125 Z M 238.65625 222.285156 C 238.65625 220.847656 239.015625 219.910156 237.144531 219.910156 C 236.925781 220.054688 236.710938 220.199219 236.496094 220.34375 C 236.566406 220.777344 236.566406 221.207031 236.566406 221.710938 C 236.925781 222 236.925781 222 238.65625 222.285156 Z M 244.632813 222.144531 C 246.214844 221.207031 247.945313 218.832031 245.929688 217.390625 C 243.121094 217.390625 242.832031 218.761719 243.046875 221.207031 C 243.335938 221.785156 243.984375 221.929688 244.632813 222.144531 Z M 231.742188 220.703125 C 232.101563 220.632813 232.464844 220.558594 232.75 220.558594 C 232.75 220.414063 232.75 220.273438 232.679688 220.199219 C 232.320313 220.128906 231.960938 220.054688 231.597656 219.984375 C 231.671875 220.199219 231.742188 220.414063 231.742188 220.703125 Z M 239.953125 218.039063 C 240.382813 217.894531 240.816406 217.753906 241.175781 217.609375 C 241.679688 216.671875 241.320313 216.023438 241.03125 215.230469 C 240.601563 215.089844 240.097656 214.945313 239.589844 214.871094 C 238.871094 215.59375 238.941406 217.535156 239.953125 218.039063 Z M 210.574219 217.894531 C 211.21875 216.742188 210.644531 215.089844 209.132813 215.59375 C 209.132813 216.023438 209.132813 216.527344 209.132813 217.03125 C 209.636719 217.320313 210.140625 217.609375 210.574219 217.894531 Z M 235.199219 216.886719 C 235.703125 216.097656 236.351563 215.015625 235.414063 214.296875 C 233.976563 214.511719 233.472656 215.160156 233.902344 216.601563 C 234.335938 216.671875 234.765625 216.742188 235.199219 216.886719 Z M 249.242188 216.457031 C 249.960938 215.878906 250.679688 215.304688 251.402344 214.730469 C 251.402344 213.648438 251.472656 212.210938 250.464844 211.5625 C 247.871094 211.5625 247.222656 213 248.378906 215.734375 C 248.664063 215.953125 248.953125 216.167969 249.242188 216.457031 Z M 244.632813 214.296875 C 245.785156 212.570313 245.28125 210.984375 243.550781 210.121094 C 243.40625 210.191406 243.265625 210.265625 243.046875 210.335938 C 242.761719 211.488281 242.542969 213.074219 243.191406 214.007813 C 243.695313 214.078125 244.199219 214.152344 244.632813 214.296875 Z M 238.65625 212.710938 C 239.015625 212.136719 239.375 211.5625 239.664063 211.058594 C 239.449219 210.410156 239.160156 209.761719 238.871094 209.113281 C 238.4375 209.257813 237.933594 209.402344 237.429688 209.617188 C 236.566406 211.417969 237.289063 212.0625 238.65625 212.710938 Z M 253.992188 211.417969 C 255.503906 210.191406 256.730469 208.25 255.433594 206.304688 L 255.433594 206.257813 C 255.472656 206.273438 255.511719 206.28125 255.550781 206.289063 C 256.25 206.429688 256.960938 205.53125 257.140625 204.28125 C 257.210938 203.804688 257.1875 203.34375 257.097656 202.949219 C 257.121094 202.894531 257.140625 202.835938 257.160156 202.777344 C 256.511719 201.410156 256.511719 200.976563 254.855469 201.265625 C 254.136719 202.632813 253.417969 203.929688 254.570313 205.082031 C 254.570313 205.511719 254.570313 205.945313 254.570313 206.449219 C 252.191406 206.882813 251.113281 207.527344 251.976563 210.191406 C 252.625 210.839844 253.199219 211.128906 253.992188 211.417969 Z M 247.511719 209.402344 C 249.167969 208.898438 248.878906 206.378906 247.871094 205.371094 C 247.585938 205.226563 247.296875 205.152344 246.9375 205.082031 C 245.425781 206.59375 244.992188 208.898438 247.511719 209.402344 Z M 242.113281 208.96875 C 242.6875 207.601563 243.121094 206.378906 242.183594 205.082031 C 241.609375 205.152344 241.03125 205.226563 240.453125 205.296875 C 239.808594 206.304688 239.953125 207.527344 240.671875 208.535156 C 241.175781 208.679688 241.679688 208.824219 242.113281 208.96875 Z M 248.089844 204.503906 C 250.25 204.074219 252.554688 200.90625 249.601563 199.824219 C 249.097656 199.753906 248.519531 199.753906 247.945313 199.753906 C 247.296875 201.050781 246.9375 201.554688 246.9375 203.066406 C 247.800781 203.855469 247.800781 203.855469 248.089844 204.503906 Z M 243.335938 203.136719 C 243.625 202.488281 243.480469 202.273438 243.40625 201.480469 C 243.046875 201.480469 242.6875 201.480469 242.328125 201.480469 C 242.328125 201.914063 242.328125 202.347656 242.257813 202.851563 C 242.617188 202.921875 242.976563 202.992188 243.335938 203.136719 Z M 260.257813 199.96875 C 261.554688 199.464844 262.5625 197.089844 261.914063 195.792969 C 260.039063 196.082031 258.671875 197.234375 258.671875 199.25 C 259.25 199.464844 259.753906 199.683594 260.257813 199.96875 Z M 253.847656 199.105469 C 254.066406 198.816406 254.28125 198.601563 254.425781 198.386719 C 254.210938 197.304688 254.210938 197.304688 253.921875 196.945313 C 253.5625 196.945313 253.128906 197.019531 252.695313 197.089844 C 252.695313 197.449219 252.625 197.882813 252.554688 198.3125 C 252.984375 198.53125 253.417969 198.816406 253.847656 199.105469 Z M 248.230469 198.675781 C 248.519531 197.664063 249.167969 197.019531 248.160156 196.152344 C 247.730469 196.296875 247.296875 196.441406 246.863281 196.585938 C 246.863281 197.953125 247.078125 198.027344 248.230469 198.675781 Z M 257.59375 195.648438 C 260.402344 194.28125 259.105469 191.113281 256.007813 191.546875 C 255.578125 192.410156 255.722656 194.570313 256.152344 195.507813 C 256.65625 195.507813 257.160156 195.578125 257.59375 195.648438 Z M 250.394531 194.210938 C 250.753906 193.996094 251.039063 193.777344 251.328125 193.5625 C 252.625 189.675781 247.800781 186.796875 247.800781 192.554688 C 248.734375 193.707031 249.023438 193.851563 250.394531 194.210938 Z M 262.273438 191.476563 C 263.929688 190.324219 263.640625 190.105469 263.496094 188.164063 C 262.417969 187.082031 261.410156 186.507813 259.898438 187.441406 C 259.609375 188.738281 259.96875 190.25 260.761719 191.257813 C 261.265625 191.332031 261.769531 191.402344 262.273438 191.476563 Z M 253.847656 189.601563 C 256.871094 187.804688 256.441406 184.5625 253.128906 183.769531 C 250.96875 184.492188 251.90625 187.011719 252.410156 188.667969 C 252.914063 188.953125 253.417969 189.242188 253.847656 189.601563 Z M 246.9375 188.089844 C 247.65625 186.578125 249.097656 185.140625 247.945313 183.410156 C 244.921875 182.402344 244.992188 185.285156 245.207031 187.515625 C 245.496094 187.804688 245.496094 187.804688 246.9375 188.089844 Z M 264.578125 176.285156 C 265.800781 175.347656 267.097656 174.914063 267.746094 173.546875 C 266.523438 172.324219 263.28125 173.910156 262.417969 175.203125 C 261.480469 175.347656 260.546875 175.492188 259.609375 175.636719 C 259.609375 175.707031 259.609375 175.851563 259.539063 175.996094 C 261.265625 176.066406 262.921875 176.140625 264.578125 176.285156 Z M 228.574219 173.476563 C 228.214844 171.101563 226.847656 170.957031 224.828125 170.164063 C 224.183594 170.164063 224.109375 170.667969 223.820313 171.101563 C 224.398438 172.253906 225.191406 172.972656 226.484375 173.332031 C 227.207031 173.332031 227.925781 173.40625 228.574219 173.476563 Z M 255.433594 166.710938 C 258.890625 165.773438 260.617188 162.460938 258.746094 159.148438 C 255.863281 157.710938 251.617188 156.917969 249.960938 160.300781 C 249.960938 162.101563 250.464844 164.335938 251.761719 165.628906 C 252.984375 165.988281 254.210938 166.351563 255.433594 166.710938 "/>
<path style=" stroke:none;fill-rule:evenodd;fill:rgb(2.69928%,10.598755%,11.399841%);fill-opacity:1;" d="M 167 0.773438 C 258.789063 0.773438 333.226563 75.210938 333.226563 167 C 333.226563 258.789063 258.789063 333.226563 167 333.226563 C 75.210938 333.226563 0.773438 258.789063 0.773438 167 C 0.773438 75.210938 75.210938 0.773438 167 0.773438 Z M 167 3.542969 C 257.257813 3.542969 330.457031 76.742188 330.457031 167 C 330.457031 257.257813 257.257813 330.457031 167 330.457031 C 76.742188 330.457031 3.542969 257.257813 3.542969 167 C 3.542969 76.742188 76.742188 3.542969 167 3.542969 "/>
<path style=" stroke:none;fill-rule:nonzero;fill:rgb(2.69928%,10.598755%,11.399841%);fill-opacity:1;" d="M 167 14.140625 L 167.003906 14.140625 L 167.003906 14.144531 C 209.207031 14.144531 247.421875 31.253906 275.085938 58.917969 C 302.746094 86.578125 319.855469 124.789063 319.855469 166.996094 L 319.859375 166.996094 L 319.859375 167.003906 L 319.855469 167.003906 C 319.855469 209.207031 302.746094 247.421875 275.082031 275.085938 C 247.421875 302.746094 209.210938 319.855469 167.003906 319.855469 L 167.003906 319.859375 L 166.996094 319.859375 L 166.996094 319.855469 C 124.792969 319.855469 86.578125 302.746094 58.914063 275.082031 C 31.253906 247.421875 14.144531 209.210938 14.144531 167.003906 L 14.140625 167.003906 L 14.140625 166.996094 L 14.144531 166.996094 C 14.144531 124.792969 31.253906 86.578125 58.917969 58.914063 C 86.578125 31.253906 124.789063 14.144531 166.996094 14.144531 L 166.996094 14.140625 Z M 167.003906 16.136719 L 167.003906 16.140625 L 166.996094 16.140625 L 166.996094 16.136719 C 125.347656 16.136719 87.636719 33.027344 60.332031 60.328125 C 33.027344 87.632813 16.136719 125.347656 16.136719 166.996094 L 16.140625 166.996094 L 16.140625 167.003906 L 16.136719 167.003906 C 16.136719 208.652344 33.027344 246.363281 60.332031 273.667969 C 87.632813 300.972656 125.351563 317.863281 166.996094 317.863281 L 166.996094 317.859375 L 167.003906 317.859375 L 167.003906 317.863281 C 208.652344 317.863281 246.363281 300.972656 273.667969 273.667969 C 300.972656 246.367188 317.863281 208.648438 317.863281 167.003906 L 317.859375 167.003906 L 317.859375 166.996094 L 317.863281 166.996094 C 317.863281 125.347656 300.972656 87.636719 273.671875 60.332031 C 246.367188 33.027344 208.652344 16.136719 167.003906 16.136719 "/>
<path style=" stroke:none;fill-rule:nonzero;fill:rgb(2.69928%,10.598755%,11.399841%);fill-opacity:1;" d="M 42.890625 209.195313 L 47.664063 215.765625 L 55.386719 213.257813 L 50.613281 219.824219 L 55.386719 226.394531 L 47.664063 223.886719 L 42.890625 230.453125 L 42.890625 222.335938 L 35.167969 219.828125 L 42.890625 217.316406 L 42.890625 209.195313 "/>
<path style=" stroke:none;fill-rule:nonzero;fill:rgb(2.69928%,10.598755%,11.399841%);fill-opacity:1;" d="M 291.109375 209.195313 L 286.335938 215.765625 L 278.613281 213.257813 L 283.386719 219.824219 L 278.613281 226.394531 L 286.335938 223.886719 L 291.109375 230.453125 L 291.109375 222.335938 L 298.832031 219.828125 L 291.109375 217.316406 L 291.109375 209.195313 "/>
<path style=" stroke:none;fill-rule:nonzero;fill:rgb(2.69928%,10.598755%,11.399841%);fill-opacity:1;" d="M 168.425781 75.773438 L 168.425781 160.078125 L 165.574219 160.078125 L 165.574219 75.773438 L 168.425781 75.773438 "/>
<path style=" stroke:none;fill-rule:nonzero;fill:rgb(2.69928%,10.598755%,11.399841%);fill-opacity:1;" d="M 160.414063 68.824219 L 160.644531 68.824219 C 160.972656 68.828125 161.289063 69.015625 161.433594 69.335938 L 166.890625 81.207031 C 166.980469 81.371094 167.019531 81.5625 166.988281 81.761719 C 166.917969 82.238281 166.472656 82.570313 165.996094 82.496094 C 159.039063 81.441406 152.070313 82.367188 145.09375 84.558594 C 138.082031 86.765625 131.0625 90.246094 124.039063 94.289063 C 114.074219 101.859375 106.15625 103.347656 98.601563 104.765625 C 93.292969 105.761719 88.171875 106.722656 82.679688 109.816406 L 82.679688 109.8125 C 82.386719 109.980469 82.007813 109.964844 81.71875 109.742188 C 81.339844 109.449219 81.269531 108.898438 81.5625 108.519531 C 84.980469 104.085938 91.101563 101.25 97.902344 98.097656 C 104.691406 94.949219 112.179688 91.476563 118.097656 85.847656 L 118.101563 85.84375 C 119.140625 84.699219 120.28125 83.558594 121.523438 82.449219 C 121.738281 82.257813 121.988281 82.039063 122.277344 81.792969 C 122.511719 81.59375 122.769531 81.378906 123.058594 81.140625 C 128.914063 76.339844 136.9375 72.03125 147.269531 70.019531 C 149.273438 69.632813 151.375 69.328125 153.578125 69.121094 C 155.769531 68.917969 158.046875 68.8125 160.414063 68.824219 Z M 141.902344 73.144531 C 142.828125 74.1875 143.714844 75.484375 144.460938 76.964844 C 145.417969 78.859375 146.003906 80.753906 146.207031 82.402344 C 146.445313 82.332031 146.679688 82.269531 146.917969 82.203125 C 147.367188 80.835938 147.628906 79.25 147.628906 77.554688 C 147.628906 75.449219 147.226563 73.503906 146.558594 71.949219 C 144.945313 72.292969 143.394531 72.695313 141.902344 73.144531 Z M 144.441406 82.933594 C 144.296875 81.324219 143.78125 79.527344 142.890625 77.761719 C 142.082031 76.160156 141.070313 74.800781 139.988281 73.761719 C 133.554688 75.964844 128.296875 79.097656 124.167969 82.488281 L 124.160156 82.492188 C 123.929688 82.683594 123.679688 82.890625 123.410156 83.121094 C 123.199219 83.304688 122.953125 83.519531 122.683594 83.757813 C 121.449219 84.859375 120.339844 85.964844 119.351563 87.054688 L 119.308594 87.101563 L 119.3125 87.101563 L 119.304688 87.109375 L 119.300781 87.109375 L 119.28125 87.128906 C 113.15625 92.949219 105.542969 96.480469 98.632813 99.683594 C 94.207031 101.734375 90.078125 103.652344 86.886719 105.925781 C 90.742188 104.464844 94.464844 103.765625 98.28125 103.050781 C 105.644531 101.667969 113.367188 100.21875 123.015625 92.875 C 123.054688 92.84375 123.101563 92.816406 123.144531 92.792969 C 130.238281 88.710938 137.335938 85.183594 144.441406 82.933594 Z M 148.371094 71.589844 C 149.003906 73.199219 149.386719 75.28125 149.386719 77.554688 C 149.386719 79.039063 149.222656 80.445313 148.933594 81.6875 C 154.175781 80.445313 159.421875 79.976563 164.671875 80.5625 L 160.082031 70.566406 C 157.890625 70.566406 155.773438 70.667969 153.738281 70.859375 C 151.894531 71.03125 150.105469 71.277344 148.371094 71.589844 "/>
<path style=" stroke:none;fill-rule:evenodd;fill:rgb(2.69928%,10.598755%,11.399841%);fill-opacity:1;" d="M 122.457031 82.792969 C 122.511719 83.957031 122.699219 85.214844 123.027344 86.503906 C 123.636719 88.871094 124.613281 90.910156 125.722656 92.332031 C 126.257813 92.03125 126.796875 91.734375 127.332031 91.445313 C 126.222656 90.085938 125.285156 88.21875 124.734375 86.066406 C 124.304688 84.386719 124.160156 82.742188 124.273438 81.28125 C 124.050781 81.460938 123.828125 81.636719 123.613281 81.8125 C 123.21875 82.136719 122.832031 82.464844 122.457031 82.792969 "/>
<path style=" stroke:none;fill-rule:evenodd;fill:rgb(2.69928%,10.598755%,11.399841%);fill-opacity:1;" d="M 118.75 86.421875 C 118.957031 87.253906 119.234375 88.109375 119.582031 88.972656 C 120.441406 91.089844 121.585938 92.882813 122.78125 94.136719 C 123.035156 93.953125 123.289063 93.761719 123.542969 93.566406 L 124.324219 93.121094 C 123.113281 91.929688 122.007813 90.273438 121.214844 88.3125 C 120.738281 87.140625 120.421875 85.96875 120.246094 84.851563 C 119.722656 85.375 119.226563 85.898438 118.75 86.421875 "/>
<path style=" stroke:none;fill-rule:nonzero;fill:rgb(2.69928%,10.598755%,11.399841%);fill-opacity:1;" d="M 97.414063 103.464844 L 166.847656 132.214844 L 166.277344 133.597656 L 96.84375 104.847656 L 97.414063 103.464844 "/>
<path style=" stroke:none;fill-rule:evenodd;fill:rgb(2.69928%,10.598755%,11.399841%);fill-opacity:1;" d="M 95.800781 100.410156 L 97.128906 104.152344 L 84.664063 107.28125 L 86.324219 104.914063 L 95.800781 100.410156 "/>
<path style=" stroke:none;fill-rule:nonzero;fill:rgb(2.69928%,10.598755%,11.399841%);fill-opacity:1;" d="M 173.585938 68.824219 L 173.355469 68.824219 C 173.027344 68.828125 172.710938 69.015625 172.566406 69.335938 L 167.109375 81.207031 C 167.019531 81.371094 166.980469 81.5625 167.011719 81.761719 C 167.082031 82.238281 167.527344 82.570313 168.003906 82.496094 C 174.960938 81.441406 181.929688 82.367188 188.90625 84.558594 C 195.917969 86.765625 202.9375 90.246094 209.964844 94.289063 C 219.925781 101.859375 227.84375 103.347656 235.398438 104.765625 C 240.707031 105.761719 245.828125 106.722656 251.320313 109.816406 L 251.320313 109.8125 C 251.613281 109.980469 251.992188 109.964844 252.277344 109.742188 C 252.660156 109.449219 252.730469 108.898438 252.4375 108.519531 C 249.019531 104.085938 242.898438 101.25 236.097656 98.097656 C 229.308594 94.949219 221.820313 91.476563 215.902344 85.847656 L 215.898438 85.84375 C 214.859375 84.699219 213.71875 83.558594 212.476563 82.449219 C 212.261719 82.257813 212.011719 82.039063 211.722656 81.792969 C 211.488281 81.59375 211.230469 81.378906 210.941406 81.140625 C 205.085938 76.339844 197.0625 72.03125 186.730469 70.019531 C 184.726563 69.632813 182.625 69.328125 180.421875 69.121094 C 178.230469 68.917969 175.953125 68.8125 173.585938 68.824219 Z M 192.097656 73.144531 C 191.171875 74.1875 190.289063 75.484375 189.539063 76.964844 C 188.582031 78.859375 187.996094 80.753906 187.792969 82.402344 C 187.554688 82.332031 187.320313 82.269531 187.082031 82.203125 C 186.632813 80.835938 186.371094 79.25 186.371094 77.554688 C 186.371094 75.449219 186.773438 73.503906 187.441406 71.949219 C 189.054688 72.292969 190.605469 72.695313 192.097656 73.144531 Z M 189.558594 82.933594 C 189.703125 81.324219 190.21875 79.527344 191.109375 77.761719 C 191.917969 76.160156 192.929688 74.800781 194.011719 73.761719 C 200.445313 75.964844 205.703125 79.097656 209.832031 82.488281 L 209.839844 82.492188 C 210.070313 82.683594 210.320313 82.890625 210.589844 83.121094 C 210.800781 83.304688 211.046875 83.519531 211.316406 83.757813 C 212.550781 84.859375 213.660156 85.964844 214.648438 87.054688 L 214.691406 87.101563 L 214.6875 87.101563 L 214.695313 87.109375 L 214.699219 87.109375 L 214.71875 87.128906 C 220.84375 92.949219 228.457031 96.480469 235.367188 99.683594 C 239.792969 101.734375 243.921875 103.652344 247.113281 105.925781 C 243.257813 104.464844 239.535156 103.765625 235.722656 103.050781 C 228.355469 101.667969 220.632813 100.21875 210.984375 92.875 C 210.945313 92.84375 210.898438 92.816406 210.855469 92.792969 C 203.761719 88.710938 196.664063 85.183594 189.558594 82.933594 Z M 185.628906 71.589844 C 184.996094 73.199219 184.613281 75.28125 184.613281 77.554688 C 184.613281 79.039063 184.777344 80.445313 185.066406 81.6875 C 179.824219 80.445313 174.578125 79.976563 169.328125 80.5625 L 173.917969 70.566406 C 176.109375 70.566406 178.226563 70.667969 180.261719 70.859375 C 182.105469 71.03125 183.894531 71.277344 185.628906 71.589844 "/>
<path style=" stroke:none;fill-rule:evenodd;fill:rgb(2.69928%,10.598755%,11.399841%);fill-opacity:1;" d="M 211.542969 82.792969 C 211.488281 83.957031 211.300781 85.214844 210.972656 86.503906 C 210.363281 88.871094 209.386719 90.910156 208.277344 92.332031 C 207.742188 92.03125 207.203125 91.734375 206.667969 91.445313 C 207.777344 90.085938 208.714844 88.21875 209.265625 86.066406 C 209.695313 84.386719 209.839844 82.742188 209.726563 81.28125 C 209.949219 81.460938 210.171875 81.636719 210.386719 81.8125 C 210.78125 82.136719 211.167969 82.464844 211.542969 82.792969 "/>
<path style=" stroke:none;fill-rule:evenodd;fill:rgb(2.69928%,10.598755%,11.399841%);fill-opacity:1;" d="M 215.25 86.421875 C 215.042969 87.253906 214.765625 88.109375 214.417969 88.972656 C 213.558594 91.089844 212.414063 92.882813 211.21875 94.136719 C 210.964844 93.953125 210.710938 93.761719 210.457031 93.566406 L 209.675781 93.121094 C 210.886719 91.929688 211.992188 90.273438 212.785156 88.3125 C 213.261719 87.140625 213.578125 85.96875 213.753906 84.851563 C 214.277344 85.375 214.773438 85.898438 215.25 86.421875 "/>
<path style=" stroke:none;fill-rule:nonzero;fill:rgb(2.69928%,10.598755%,11.399841%);fill-opacity:1;" d="M 236.585938 103.464844 L 167.152344 132.214844 L 167.722656 133.597656 L 237.15625 104.847656 L 236.585938 103.464844 "/>
<path style=" stroke:none;fill-rule:evenodd;fill:rgb(2.69928%,10.598755%,11.399841%);fill-opacity:1;" d="M 238.199219 100.410156 L 236.871094 104.152344 L 249.335938 107.28125 L 247.679688 104.914063 L 238.199219 100.410156 "/>
<path style=" stroke:none;fill-rule:nonzero;fill:rgb(2.69928%,10.598755%,11.399841%);fill-opacity:1;" d="M 158.226563 69.796875 L 165.996094 56.8125 C 166.328125 56.261719 167.046875 56.078125 167.597656 56.410156 C 167.78125 56.519531 167.925781 56.671875 168.019531 56.847656 L 175.773438 69.796875 C 176 70.179688 175.984375 70.640625 175.773438 70.996094 L 168.003906 83.980469 C 167.671875 84.535156 166.953125 84.714844 166.398438 84.382813 C 166.230469 84.28125 166.09375 84.140625 165.996094 83.980469 L 158.226563 70.996094 C 158 70.613281 158.015625 70.15625 158.230469 69.796875 L 158.226563 69.796875 "/>
<path style=" stroke:none;fill-rule:nonzero;fill:rgb(100%,100%,100%);fill-opacity:1;" d="M 167 59.6875 L 160.589844 70.398438 L 167 81.105469 L 173.410156 70.398438 L 167 59.6875 "/>
<path style=" stroke:none;fill-rule:evenodd;fill:rgb(2.69928%,10.598755%,11.399841%);fill-opacity:1;" d="M 177.898438 276.917969 C 186.347656 239.113281 165.539063 232.03125 176.238281 189.757813 C 176.414063 189.050781 176.578125 188.339844 176.722656 187.621094 C 176.867188 186.90625 176.996094 186.183594 177.105469 185.453125 C 177.417969 183.398438 177.515625 181.464844 177.546875 179.628906 C 177.683594 171.683594 177.804688 165.429688 184.332031 160.003906 C 186.589844 158.128906 189.105469 156.480469 191.820313 155.007813 C 214.429688 142.757813 251 142.605469 268.691406 123.828125 C 266.027344 117.566406 262.800781 111.601563 259.078125 105.992188 C 244.832031 131.984375 190.070313 119.726563 166.691406 149.269531 C 142.78125 117.699219 89.914063 131.015625 74.953125 105.949219 C 71.246094 111.527344 68.03125 117.457031 65.371094 123.683594 C 95.96875 150.371094 125.1875 136.03125 148.324219 160.71875 C 156.039063 167.917969 157.660156 177.171875 156.1875 187.625 C 154.558594 199.183594 153 208.753906 153.152344 219.558594 C 153.25 226.324219 153.421875 232.195313 156.003906 238.316406 C 160.261719 248.398438 161.386719 264.558594 155.015625 276.808594 C 158.953125 277.234375 162.949219 277.453125 166.996094 277.453125 L 166.996094 277.449219 L 167.003906 277.449219 L 167.003906 277.453125 C 170.679688 277.453125 174.3125 277.273438 177.898438 276.917969 "/>
<path style=" stroke:none;fill-rule:nonzero;fill:rgb(2.69928%,10.598755%,11.399841%);fill-opacity:1;" d="M 167 54.550781 L 167.003906 54.550781 L 167.003906 54.554688 C 198.050781 54.554688 226.160156 67.144531 246.507813 87.492188 C 266.855469 107.839844 279.445313 135.949219 279.445313 166.996094 L 279.449219 166.996094 L 279.449219 167.003906 L 279.445313 167.003906 C 279.445313 198.050781 266.855469 226.160156 246.507813 246.507813 C 226.160156 266.855469 198.050781 279.445313 167.003906 279.445313 L 167.003906 279.449219 L 166.996094 279.449219 L 166.996094 279.445313 C 135.949219 279.445313 107.839844 266.855469 87.492188 246.507813 C 67.144531 226.160156 54.554688 198.050781 54.554688 167.003906 L 54.550781 167.003906 L 54.550781 166.996094 L 54.554688 166.996094 C 54.554688 135.949219 67.144531 107.839844 87.492188 87.488281 C 107.839844 67.144531 135.949219 54.554688 166.996094 54.554688 L 166.996094 54.550781 Z M 167.003906 56.546875 L 167.003906 56.550781 L 166.996094 56.550781 L 166.996094 56.546875 C 136.507813 56.546875 108.894531 68.914063 88.90625 88.902344 C 68.914063 108.894531 56.546875 136.507813 56.546875 166.996094 L 56.550781 166.996094 L 56.550781 167.003906 L 56.546875 167.003906 C 56.546875 197.492188 68.914063 225.105469 88.90625 245.09375 C 108.894531 265.085938 136.507813 277.453125 166.996094 277.453125 L 166.996094 277.449219 L 167.003906 277.449219 L 167.003906 277.453125 C 197.492188 277.453125 225.105469 265.085938 245.09375 245.09375 C 265.085938 225.105469 277.453125 197.492188 277.453125 167.003906 L 277.449219 167.003906 L 277.449219 166.996094 L 277.453125 166.996094 C 277.453125 136.507813 265.085938 108.894531 245.097656 88.90625 C 225.105469 68.914063 197.492188 56.546875 167.003906 56.546875 "/>
<path style=" stroke:none;fill-rule:evenodd;fill:rgb(2.69928%,10.598755%,11.399841%);fill-opacity:1;" d="M 216.792969 37.546875 C 265.742188 56.390625 301.3125 102.203125 305.292969 156.769531 L 301.953125 159.761719 C 301.796875 156.734375 301.535156 153.734375 301.179688 150.765625 C 299.203125 151.363281 297.210938 151.972656 295.183594 152.304688 C 293.359375 152.601563 291.617188 151.730469 289.960938 149.683594 C 289.449219 149.019531 288.800781 147.964844 288.03125 146.53125 L 285.75 151.0625 L 284.347656 154.078125 L 283.914063 155.144531 C 283.144531 157.160156 282.625 158.570313 282.363281 159.386719 L 280.796875 156.566406 C 280.75 156.285156 281.382813 154.621094 282.703125 151.601563 C 284.148438 148.285156 285.578125 145.347656 286.996094 142.769531 C 288.800781 139.671875 290.214844 138.03125 291.246094 137.859375 C 291.574219 137.808594 291.878906 137.953125 292.164063 138.277344 C 292.460938 138.683594 292.652344 139.136719 292.730469 139.605469 L 293.652344 145.238281 L 300.210938 144.097656 C 299.460938 139.710938 298.5 135.398438 297.339844 131.167969 L 277.410156 136.894531 L 277.980469 128.671875 L 295.074219 123.765625 C 292.480469 116.089844 289.21875 108.722656 285.355469 101.730469 L 279.765625 105.019531 C 280.347656 105.613281 280.738281 106.046875 280.9375 106.324219 C 281.808594 107.328125 282.414063 108.109375 282.753906 108.683594 C 284.035156 110.851563 284.710938 113.269531 284.777344 115.921875 C 284.839844 118.777344 284.042969 120.703125 282.394531 121.675781 C 281.148438 122.410156 279.480469 122.667969 277.382813 122.449219 C 276.789063 122.34375 276.296875 122.238281 275.910156 122.148438 C 275.519531 122.050781 275.167969 121.957031 274.855469 121.871094 L 273.960938 115.078125 C 274.3125 115.675781 275.320313 116.3125 276.988281 116.992188 C 278.984375 117.851563 280.539063 117.945313 281.652344 117.289063 C 282.6875 116.679688 282.445313 115.082031 280.914063 112.488281 C 279.875 110.730469 278.65625 109.359375 277.269531 108.394531 C 276.710938 108.011719 276.144531 107.714844 275.574219 107.496094 L 267.78125 112.097656 L 266.484375 104.144531 L 269.738281 102.226563 C 269.121094 101.71875 268.558594 101.195313 268.027344 100.640625 C 266.785156 99.332031 265.769531 98.003906 264.976563 96.652344 C 263.660156 94.425781 263.015625 91.972656 263.035156 89.285156 C 263.054688 86.605469 263.773438 84.851563 265.175781 84.023438 C 266.417969 83.289063 268.066406 83.785156 270.113281 85.503906 C 272.164063 87.234375 273.953125 89.390625 275.480469 91.972656 L 274.625 97.710938 C 274.71875 97.65625 274.355469 96.921875 273.519531 95.503906 C 272.230469 93.320313 270.953125 91.542969 269.667969 90.164063 C 267.921875 88.300781 266.527344 87.671875 265.492188 88.28125 C 264.765625 88.710938 264.558594 89.398438 264.875 90.351563 C 265.035156 90.796875 265.46875 91.617188 266.179688 92.824219 C 267.371094 94.84375 269.019531 96.621094 271.128906 98.160156 C 271.792969 98.671875 272.699219 99.210938 273.859375 99.789063 L 281.542969 95.269531 C 276.410156 87.09375 270.429688 79.507813 263.722656 72.632813 L 261.714844 75.101563 C 261.421875 75.464844 261.019531 75.855469 260.597656 76.347656 C 260.175781 76.839844 259.902344 77.144531 259.78125 77.265625 C 258.480469 78.574219 256.558594 78.890625 254.015625 78.203125 C 253.214844 77.96875 252.070313 77.496094 250.605469 76.785156 L 251.414063 81.792969 L 252.050781 85.058594 L 252.324219 86.175781 C 252.882813 88.261719 253.289063 89.707031 253.558594 90.519531 L 250.632813 89.15625 C 250.429688 88.953125 249.96875 87.234375 249.265625 84.019531 C 248.492188 80.484375 247.925781 77.265625 247.5625 74.34375 C 247.203125 70.777344 247.386719 68.621094 248.121094 67.878906 C 248.355469 67.644531 248.6875 67.578125 249.109375 67.675781 C 249.589844 67.832031 250.007813 68.085938 250.347656 68.421875 L 254.398438 72.441406 L 258.894531 67.921875 C 254.835938 64.15625 250.546875 60.636719 246.050781 57.390625 L 235.371094 74.679688 L 230.300781 68.234375 L 234.628906 61.191406 L 233.308594 60.527344 C 233.015625 60.382813 232.726563 60.222656 232.425781 60.035156 L 231.683594 59.582031 L 230.964844 59.085938 L 230.265625 58.605469 C 229.210938 57.828125 228.101563 56.613281 226.921875 54.96875 L 226.773438 54.695313 L 226.558594 54.367188 L 226.324219 53.964844 C 225.855469 54.132813 225.535156 54.210938 225.371094 54.214844 C 224.675781 54.386719 224.101563 54.464844 223.648438 54.445313 C 223.4375 54.425781 223.058594 54.390625 222.503906 54.328125 C 221.949219 54.269531 221.453125 54.1875 221.03125 54.121094 L 219.675781 53.808594 L 221.25 58.660156 L 223.984375 66.699219 L 220.113281 65.605469 C 219.859375 65.449219 219.253906 63.914063 218.265625 60.992188 C 217.179688 57.871094 216.324219 54.988281 215.703125 52.359375 C 214.941406 49.128906 214.800781 47.113281 215.296875 46.308594 C 215.722656 45.613281 216.496094 45.605469 217.609375 46.292969 L 222.472656 49.28125 L 225.113281 44.964844 C 222.492188 43.714844 219.828125 42.542969 217.121094 41.460938 Z M 171.085938 39.566406 C 170.277344 40.066406 169.25 40.578125 168.003906 41.101563 L 166.046875 41.894531 C 165.765625 41.496094 165.292969 41.117188 164.667969 40.753906 C 163.847656 40.253906 162.753906 39.941406 161.367188 39.808594 C 160.105469 39.691406 158.949219 39.800781 157.894531 40.144531 C 156.878906 40.523438 156.335938 41.125 156.265625 41.953125 C 156.15625 43.21875 157.058594 44.207031 158.980469 44.925781 C 160.292969 45.414063 162.042969 45.761719 164.226563 45.96875 L 164.863281 46.027344 C 165.148438 46.054688 165.40625 46.078125 165.609375 46.097656 C 166.085938 46.144531 166.382813 46.171875 166.492188 46.183594 L 171.707031 52.585938 L 175.324219 51.5625 L 169.535156 45.753906 C 171.691406 45.363281 173.535156 44.550781 175.089844 43.3125 C 176.820313 41.925781 177.773438 40.191406 177.949219 38.132813 C 178.160156 35.636719 177.210938 33.269531 175.101563 31.03125 C 172.839844 28.675781 170.011719 27.335938 166.621094 27.015625 C 164.113281 26.777344 161.96875 27.039063 160.195313 27.800781 C 158.421875 28.558594 157.46875 29.621094 157.355469 30.996094 C 157.179688 33.042969 159.28125 35.078125 163.648438 37.089844 C 166.96875 38.585938 169.308594 39.398438 170.652344 39.527344 Z M 186.296875 33.222656 L 183.289063 50.066406 L 190.410156 54.21875 L 193.921875 34.539063 C 196.433594 35.046875 198.921875 35.621094 201.378906 36.269531 L 200.167969 32.332031 C 192.683594 30.492188 184.960938 29.257813 177.050781 28.6875 L 179.203125 32.394531 C 181.585938 32.609375 183.949219 32.886719 186.296875 33.222656 Z M 93.472656 70.945313 L 98.496094 71.785156 L 109.953125 58.195313 L 112.347656 62.285156 L 120.445313 60.9375 L 110.617188 44.144531 C 118.570313 40.488281 126.941406 37.578125 135.636719 35.511719 L 136.292969 38.515625 L 127.84375 40.359375 C 126.089844 40.738281 124.753906 41.507813 123.84375 42.648438 C 122.9375 43.785156 122.609375 44.941406 122.863281 46.113281 C 123.300781 48.121094 125.257813 49.71875 128.742188 50.914063 C 132.226563 52.109375 135.632813 52.339844 138.972656 51.609375 L 139.746094 51.441406 C 140.066406 51.371094 140.394531 51.300781 140.714844 51.230469 L 141.617188 50.9375 L 142.496094 50.652344 L 146.308594 54.136719 L 151.527344 52.996094 L 145.769531 49.347656 C 146.253906 48.972656 146.609375 48.628906 146.859375 48.308594 C 147.582031 47.382813 147.8125 46.316406 147.554688 45.128906 C 147.386719 44.355469 146.726563 43.847656 145.570313 43.597656 C 144.417969 43.34375 143.179688 43.367188 141.851563 43.65625 C 140.722656 43.902344 139.792969 44.285156 139.054688 44.8125 C 138.347656 45.363281 138.078125 45.988281 138.230469 46.679688 C 138.265625 46.84375 138.289063 46.953125 138.320313 47.027344 C 138.351563 47.097656 138.460938 47.261719 138.632813 47.535156 L 138.859375 47.828125 L 139.078125 48.050781 C 138.171875 48.398438 137.234375 48.679688 136.296875 48.882813 C 134.308594 49.316406 132.628906 49.4375 131.253906 49.230469 C 129.597656 49 128.652344 48.386719 128.433594 47.382813 C 128.199219 46.304688 128.347656 45.394531 128.878906 44.640625 C 129.40625 43.886719 130.375 43.355469 131.8125 43.042969 L 143.824219 40.421875 L 142.441406 34.078125 C 146.179688 33.390625 149.96875 32.859375 153.808594 32.484375 L 151.871094 29.144531 C 148.105469 29.554688 144.386719 30.113281 140.714844 30.816406 L 137.460938 29.363281 C 134.191406 27.953125 131.4375 26.886719 129.242188 26.144531 C 128.332031 25.8125 127.410156 25.636719 126.457031 25.605469 C 125.519531 25.574219 124.464844 25.734375 123.304688 26.085938 L 114.664063 28.703125 L 118.667969 31.664063 C 118.824219 31.554688 119.117188 31.402344 119.539063 31.195313 C 119.949219 30.992188 120.300781 30.832031 120.574219 30.714844 C 121.34375 30.394531 122.234375 30.078125 123.261719 29.769531 C 124.945313 29.257813 126.390625 28.929688 127.597656 28.785156 C 128.808594 28.648438 129.761719 28.734375 130.460938 29.050781 L 137.101563 31.5625 C 116.460938 36.101563 97.542969 45.238281 81.476563 57.84375 L 81.476563 57.863281 L 85.742188 59.011719 C 86.957031 58.097656 88.183594 57.203125 89.429688 56.328125 L 93.101563 62.597656 C 93.949219 62.671875 94.742188 62.734375 95.503906 62.789063 C 96.257813 62.839844 96.835938 62.859375 97.226563 62.851563 C 99.242188 62.804688 100.972656 62.5625 102.421875 62.128906 Z M 103.726563 47.558594 L 107.214844 53.515625 C 105.847656 56.035156 103.617188 58.320313 100.488281 60.363281 L 95.699219 52.179688 C 98.316406 50.550781 100.992188 49.007813 103.726563 47.558594 Z M 173.058594 34.8125 C 173.023438 35.242188 172.96875 35.589844 172.890625 35.839844 C 172.816406 36.09375 172.757813 36.300781 172.714844 36.460938 L 172.492188 37.335938 L 172.269531 38.035156 C 172.074219 38.082031 171.867188 38.09375 171.621094 38.070313 C 170.5625 37.96875 168.566406 37.164063 165.65625 35.660156 C 163.65625 34.558594 162.703125 33.566406 162.777344 32.679688 C 162.839844 31.9375 163.34375 31.351563 164.292969 30.929688 C 165.234375 30.496094 166.40625 30.351563 167.820313 30.484375 C 169.636719 30.65625 171.007813 31.128906 171.898438 31.898438 C 172.773438 32.71875 173.15625 33.691406 173.058594 34.8125 Z M 28.597656 158.324219 C 30.722656 123.929688 45.394531 92.929688 68.089844 69.832031 L 73.085938 69.832031 C 71.199219 71.652344 69.367188 73.53125 67.589844 75.464844 L 69.335938 76.3125 C 69.707031 76.601563 70.164063 76.921875 70.707031 77.273438 C 71.242188 77.636719 71.582031 77.863281 71.71875 77.96875 C 73.179688 79.101563 73.726563 80.96875 73.355469 83.578125 C 73.21875 84.402344 72.890625 85.59375 72.367188 87.136719 L 77.234375 85.71875 L 80.398438 84.6875 L 81.476563 84.28125 C 83.476563 83.46875 84.859375 82.886719 85.636719 82.519531 L 84.640625 85.59375 C 84.464844 85.820313 82.816406 86.488281 79.710938 87.582031 C 76.296875 88.78125 73.171875 89.738281 70.316406 90.457031 C 66.820313 91.246094 64.65625 91.332031 63.828125 90.691406 C 63.566406 90.488281 63.464844 90.167969 63.507813 89.738281 C 63.605469 89.242188 63.804688 88.792969 64.09375 88.417969 L 67.589844 83.902344 L 63.179688 80.492188 C 59.835938 84.5 56.71875 88.703125 53.851563 93.085938 L 70.988281 101.867188 L 64.824219 107.496094 L 56.261719 103.105469 L 51.96875 111.484375 C 51.308594 112.769531 50.960938 113.984375 50.90625 115.132813 C 50.859375 116.289063 51.164063 117.039063 51.84375 117.390625 C 52.664063 117.8125 53.675781 117.960938 54.875 117.824219 C 56.074219 117.6875 57.464844 117.285156 59.066406 116.605469 C 61.820313 115.445313 63.308594 114.648438 63.542969 114.1875 L 62.753906 117.5625 C 61.5625 118.28125 60.527344 118.902344 59.640625 119.394531 C 58.765625 119.878906 57.972656 120.285156 57.261719 120.609375 C 53.300781 122.4375 50.523438 122.941406 48.929688 122.125 C 48.472656 121.890625 48.167969 121.523438 48.015625 121.03125 C 47.941406 120.808594 47.832031 120.203125 47.695313 119.214844 L 44 126.425781 L 40.527344 125.902344 L 53.117188 101.328125 L 49.820313 99.640625 C 43.753906 110.167969 39.0625 121.589844 36 133.65625 L 37.210938 133.191406 C 38.429688 132.785156 39.429688 132.695313 40.210938 132.914063 C 41.195313 133.1875 41.910156 133.84375 42.363281 134.890625 C 42.464844 134.988281 42.546875 135.179688 42.601563 135.449219 C 43.59375 134.625 44.308594 134.089844 44.75 133.84375 C 46.417969 132.910156 47.964844 132.636719 49.371094 133.03125 C 50.847656 133.445313 51.824219 134.722656 52.308594 136.851563 C 52.78125 138.992188 52.640625 141.429688 51.875 144.171875 C 50.917969 147.582031 48.914063 150.558594 45.847656 153.09375 C 43.683594 154.949219 41.117188 156.421875 38.164063 157.535156 C 37.644531 157.730469 37.179688 157.902344 36.769531 158.054688 L 36.769531 154.792969 C 37.675781 154.515625 38.867188 154.03125 40.339844 153.335938 C 44.234375 151.410156 46.683594 148.671875 47.679688 145.117188 C 48.234375 143.136719 48.34375 141.328125 48.003906 139.691406 C 47.667969 138.058594 47.015625 137.097656 46.046875 136.824219 C 45.195313 136.585938 44.242188 137.015625 43.195313 138.09375 L 43.308594 139.296875 C 43.363281 140.050781 43.363281 140.699219 43.320313 141.238281 C 43.246094 142.351563 43.054688 143.457031 42.75 144.558594 L 37.902344 147.558594 C 37.917969 147.507813 37.96875 147.324219 38.054688 147.019531 L 38.257813 146.285156 C 38.867188 144.109375 39.265625 142.128906 39.441406 140.324219 C 39.648438 137.734375 39.273438 136.300781 38.3125 136.03125 C 37.839844 135.898438 37.074219 136.023438 36.03125 136.425781 L 35.242188 136.792969 C 33.8125 143.054688 32.816406 149.480469 32.289063 156.042969 Z M 239.679688 53.058594 C 236.886719 51.273438 234.027344 49.589844 231.105469 48.011719 C 230.636719 49.714844 230.160156 50.847656 229.367188 52.132813 L 228.722656 52.871094 C 228.417969 53.132813 228.117188 53.285156 227.855469 53.320313 C 228.027344 53.511719 228.613281 54.011719 229.648438 54.828125 C 230.125 55.222656 230.46875 55.496094 230.683594 55.644531 C 230.90625 55.796875 231.238281 56.011719 231.691406 56.289063 C 232.945313 57.058594 234.117188 57.574219 235.226563 57.851563 L 236.589844 58 L 239.679688 53.058594 "/>
</g>
</svg>
